<svg width="111" height="26" viewBox="0 0 111 26" fill="none" xmlns="http://www.w3.org/2000/svg">
<path d="M8.83607 17.8944L3.6971 5.3982L3.17951 13.273C3.06859 14.9737 3.25345 17.155 5.43474 17.155H5.54565V17.5986H0V17.155H0.110913C2.07038 17.155 2.62494 14.8628 2.69888 13.5688L3.54922 0.665913H4.10378L9.79732 14.8997L14.049 0.665913H14.4926L16.2672 17.155H17.9309V17.5986H12.3853V17.155H14.1599L12.9399 5.87883L9.35366 17.8944H8.83607ZM16.6572 0.961682H22.2028V1.40533H20.5761L24.4211 14.3452L26.8242 5.3982C27.2309 3.84542 27.3048 1.40533 25.1235 1.40533H25.0126V0.961682H30.5583V1.40533H30.4474C28.7097 1.40533 27.8964 3.29085 27.4897 4.54787L23.9035 17.8944C23.1641 20.6303 21.2416 25.2147 17.8033 25.5474C16.2875 25.6953 15.7699 23.9576 16.2875 22.7746C18.3578 23.2552 21.0197 22.6267 22.0919 21C22.7204 20.0387 23.4598 18.5229 22.8313 16.1198L18.136 1.40533H16.6572V0.961682ZM30.5444 2.2187L34.1676 0.370146L34.5373 0.665913V3.43874C35.0918 2.44052 36.7186 0.000436087 38.9738 0.407116C41.4139 0.850769 43.2994 3.62359 43.2994 9.28016C43.2994 14.567 40.5635 18.1902 37.6798 18.1902C36.2749 18.1902 35.3137 17.5986 34.5373 16.4895V24.5492H36.2749V24.9928H30.7293V24.5492H32.393V1.77504L30.8032 2.58841L30.5444 2.2187ZM34.5373 9.46501C34.5373 15.5652 35.7573 17.7095 37.6798 17.7095C40.1938 17.7095 41.0072 13.0882 41.0072 9.28016C41.0072 6.58127 40.4896 2.47749 38.4192 1.81201C36.4228 1.18351 35.1288 3.32783 34.5373 4.32604V9.46501ZM50.1347 0.961682V1.40533H48.3971V8.208H54.3124V1.40533H52.6487V0.961682H58.1944V1.40533H56.4567V17.155H58.1944V17.5986H52.6487V17.155H54.3124V8.65165H48.3971V17.155H50.1347V17.5986H44.5891V17.155H46.2527V1.40533H44.5891V0.961682H50.1347ZM64.9023 18.1902C61.9816 18.1902 59.3197 14.567 59.3197 9.28016C59.3197 3.9933 61.9816 0.370146 64.9023 0.370146C67.786 0.370146 70.5219 3.9933 70.5219 9.28016C70.5219 14.567 67.786 18.1902 64.9023 18.1902ZM61.6119 9.28016C61.6119 13.0882 62.3513 17.7095 64.9023 17.7095C67.4163 17.7095 68.2297 13.0882 68.2297 9.28016C68.2297 5.47214 67.4163 0.850769 64.9023 0.850769C62.3513 0.850769 61.6119 5.47214 61.6119 9.28016ZM71.2342 2.2187L74.8573 0.370146L75.227 0.665913V3.43874C75.7816 2.44052 77.4083 0.000436087 79.6636 0.407116C82.1036 0.850769 83.9892 3.62359 83.9892 9.28016C83.9892 14.567 81.2533 18.1902 78.3696 18.1902C76.9647 18.1902 76.0034 17.5986 75.227 16.4895V24.5492H76.9647V24.9928H71.419V24.5492H73.0827V1.77504L71.493 2.58841L71.2342 2.2187ZM75.227 9.46501C75.227 15.5652 76.4471 17.7095 78.3696 17.7095C80.8836 17.7095 81.697 13.0882 81.697 9.28016C81.697 6.58127 81.1794 2.47749 79.109 1.81201C77.1126 1.18351 75.8186 3.32783 75.227 4.32604V9.46501ZM90.8245 0.961682V1.40533H89.0868V8.57771H89.3826C90.4917 8.57771 91.3421 8.28194 91.9336 5.21335C92.3033 3.25388 92.7839 0.481058 94.4107 0.481058C95.3349 0.481058 96.1483 1.44231 96.1853 4.36301V5.9158H95.7416V5.80488C95.7416 4.32604 95.3349 2.88417 94.2258 2.88417C93.2276 2.88417 92.5991 4.73272 92.0815 6.39642C91.7118 7.6904 91.2681 8.35588 90.5657 8.68862C92.8209 9.16924 94.004 11.2026 94.5216 13.5318C94.9652 15.6022 94.8173 16.7853 95.5937 16.7853C96.2592 16.7853 96.555 15.3804 96.481 14.0494H96.9247C97.0356 16.0828 96.4441 18.1532 94.8173 18.1532C92.8948 18.1532 92.4512 15.898 92.2294 13.7906C92.0445 12.053 92.1924 9.02136 90.159 9.02136H89.0868V17.155H90.8245V17.5986H85.2788V17.155H86.9425V1.40533H85.2788V0.961682H90.8245ZM110.465 14.1234V14.0494H110.908V14.2712C110.908 16.7483 110.095 18.1902 108.764 18.1902C107.47 18.1902 106.398 16.9701 106.398 14.567V12.2009C105.658 15.7871 103.921 18.6338 101.259 18.1162C99.3365 17.7465 97.8946 15.1585 99.3734 12.5706C100.224 11.0917 101.85 9.87169 103.44 8.76256C104.623 7.91223 106.546 6.95098 106.361 3.69754C106.25 1.88596 105.917 0.998652 105.03 0.88774C103.181 0.628943 101.814 3.9933 101.481 6.58127C100.593 6.58127 99.0037 5.87883 99.2625 4.5109C99.5953 2.73629 102.072 0.333175 105.067 0.444088C107.359 0.51803 108.505 1.92293 108.542 5.28729V14.1973C108.542 16.0828 108.949 16.7853 109.54 16.7853C110.021 16.7853 110.465 16.1568 110.465 14.1234ZM101.703 11.3505C100.298 13.273 100.852 15.7501 102.738 16.0828C104.956 16.4895 106.398 12.9403 106.398 7.83829V6.28551C105.548 8.50377 103.403 9.0953 101.703 11.3505Z" fill="#311B12"/>
</svg>
